<?xml version="1.0" encoding="UTF-8"?>
<svg version="1.1" viewBox="0 0 24 24" xmlns="http://www.w3.org/2000/svg" xmlns:xlink="http://www.w3.org/1999/xlink">
    <!--Generated by IJSVG (https://github.com/curthard89/IJSVG)-->
    <g fill="none" stroke="#000000" stroke-linejoin="round" stroke-width="1">
        <path stroke-linecap="round" d="M17.49,12c0.943,-1.254 1.51,-2.81 1.51,-4.5c0,-4.142 -3.357,-7.5 -7.5,-7.5c-4.142,0 -7.5,3.358 -7.5,7.5c0,1.69 0.566,3.246 1.511,4.5h11.979Zm-13.49,-4.5c-1.657,0 -3,-1.343 -3,-3v-1.5c0,-0.552 -0.447,-1 -1,-1m18.791,7.244c0.37,0.164 0.778,0.256 1.209,0.256c1.658,0 3,-1.343 3,-3c0,-1.656 -1.342,-3 -3,-3c-0.683,0 -1.31,0.229 -1.813,0.615" transform="translate(0.5, 6.5)"></path>
        <path d="M0,0h12" transform="translate(6, 9.5)"></path>
        <path stroke-linecap="round" d="M2.70711,0.585786c0.585786,0.585786 0.585786,1.53553 0,2.12132c-0.585786,0.585786 -1.53553,0.585786 -2.12132,0c-0.585786,-0.585786 -0.585786,-1.53553 0,-2.12132c0.585786,-0.585786 1.53553,-0.585786 2.12132,-4.44089e-16" transform="translate(10.3536, 3.35355)"></path>
    </g>
</svg>